<svg xmlns="http://www.w3.org/2000/svg" viewBox="0 0 64 64" width="64" height="64">
  <defs>
    <radialGradient id="face" cx="50%" cy="45%" r="55%">
      <stop offset="0%" stop-color="#fca5a5"/>
      <stop offset="100%" stop-color="#ef4444"/>
    </radialGradient>
  </defs>
  <circle cx="32" cy="34" r="26" fill="url(#face)" stroke="#991b1b" stroke-width="2"/>
  <!-- sobrancelhas bravas -->
  <path d="M14 22 L26 28" fill="none" stroke="#7f1d1d" stroke-width="2.5" stroke-linecap="round"/>
  <path d="M50 22 L38 28" fill="none" stroke="#7f1d1d" stroke-width="2.5" stroke-linecap="round"/>
  <!-- olhos bravos -->
  <circle cx="20" cy="32" r="5" fill="#1f2937"/>
  <circle cx="44" cy="32" r="5" fill="#1f2937"/>
  <circle cx="21" cy="30" r="1.5" fill="#fff"/>
  <circle cx="45" cy="30" r="1.5" fill="#fff"/>
  <!-- fumaça/raiva saindo -->
  <path d="M12 16 Q16 6 20 16" fill="none" stroke="#7f1d1d" stroke-width="2" stroke-linecap="round"/>
  <path d="M44 16 Q48 6 52 16" fill="none" stroke="#7f1d1d" stroke-width="2" stroke-linecap="round"/>
  <!-- boca gritando -->
  <path d="M22 48 Q32 42 42 48 Q32 56 22 48 Z" fill="#7f1d1d"/>
  <!-- balão de raiva com símbolos -->
  <g transform="translate(26, 2)">
    <ellipse cx="12" cy="11" rx="18" ry="12" fill="#fff" stroke="#7f1d1d" stroke-width="1.5"/>
    <path d="M12 21 L7 28 L17 21" fill="#fff" stroke="#7f1d1d" stroke-width="1.5"/>
    <!-- asterisco raiva -->
    <g transform="translate(12, 11)">
      <path d="M0 -7 L0 7 M-6 -4 L6 4 M-6 4 L6 -4" fill="none" stroke="#ef4444" stroke-width="2.5" stroke-linecap="round"/>
      <circle r="2.5" fill="#ef4444"/>
    </g>
  </g>
</svg>