<svg xmlns="http://www.w3.org/2000/svg" viewBox="0 0 64 64" width="64" height="64">
  <defs>
    <radialGradient id="face" cx="50%" cy="45%" r="55%">
      <stop offset="0%" stop-color="#fde047"/>
      <stop offset="100%" stop-color="#facc15"/>
    </radialGradient>
  </defs>
  <circle cx="32" cy="34" r="26" fill="url(#face)" stroke="#b45309" stroke-width="2"/>
  <!-- olhos estrelas -->
  <polygon points="20,24 22,30 28,30 23,34 25,40 20,36 15,40 17,34 12,30 18,30" fill="#fbbf24" stroke="#b45309" stroke-width="1.2" stroke-linejoin="round"/>
  <polygon points="44,24 46,30 52,30 47,34 49,40 44,36 39,40 41,34 36,30 42,30" fill="#fbbf24" stroke="#b45309" stroke-width="1.2" stroke-linejoin="round"/>
  <!-- boca aberta sorrindo -->
  <path d="M18 42 Q32 58 46 42 Q46 54 32 56 Q18 54 18 42 Z" fill="#7f1d1d" stroke="#78350f" stroke-width="1.5"/>
</svg>